<svg width="900" height="600" xmlns="http://www.w3.org/2000/svg">
 <g id="Layer_1">
  <title>Layer 1</title>
  <path stroke-width="4" d="m488.33335,44.16667c0,1.66666 0,3.33334 0,5c0,1.66666 0,3.33334 0,5c0,1.66666 0.63782,3.46021 0,5c-0.90198,2.17761 -2.65668,5.85502 -6.66669,8.33334c-4.48334,2.77085 -11.91833,2.39104 -15,6.66666c-0.97449,1.35207 -1.66669,1.66666 -1.66669,3.33334c0,1.66666 0,3.33333 0,5c0,1.66666 0,3.33333 0,5c0,1.66666 -1.17853,3.82149 0,5c1.17853,1.17853 3.82153,0.48818 5,1.66666c1.17853,1.17851 3.33337,1.66669 5,3.33333c1.66669,1.66669 3.33337,1.66667 3.33337,3.33334c0,1.66666 0.63782,3.46021 0,5c-0.90198,2.17761 -2.15485,2.1548 -3.33337,3.33333c-1.17853,1.17851 0,3.33333 0,5c0,1.66667 0,3.33333 0,5c0,1.66667 1.66669,1.66667 1.66669,3.33333c0,1.66667 0,3.33334 0,5c0,1.66667 0,3.33334 0,5c0,1.66667 0,3.33334 0,5c0,1.66667 0,3.33334 0,5c0,1.66667 3.33331,3.33334 3.33331,5c0,1.66667 0,3.33334 0,5c0,1.66667 -1.95514,3.08789 -3.33331,5c-2.17914,3.02332 -2.6955,3.46021 -3.33331,5c-0.90198,2.17761 -2.31152,4.86269 -6.66669,6.66667c-1.53979,0.63782 -2.15479,0.48816 -3.33331,1.66667c-1.17853,1.17853 -4.79761,0.82243 -10,1.66666c-3.29034,0.53395 -5.48816,0.48814 -6.66669,1.66667c-1.17853,1.17851 -1.71124,1.28377 -3.33331,1.66667c-3.62714,0.85623 -7.4314,2.82239 -8.33337,5c-0.63782,1.53979 -1.66663,1.66666 -3.33331,3.33333c-1.66669,1.66667 -4.7074,5.16312 -6.66669,8.33333c-1.75244,2.83551 -0.76465,4.48909 -1.66663,6.66667c-0.63782,1.53981 -1.02887,5.12686 -1.66669,6.66667c-1.80402,4.35521 -4.09802,4.48906 -5,6.66666c-0.63782,1.53981 -0.79044,3.58226 -1.66666,5c-1.95929,3.1702 -4.66168,3.76085 -6.66669,5c-4.48334,2.77083 -7.18332,2.22917 -11.66666,5.00002c-2.00497,1.23917 -7.18332,0.56247 -11.66666,3.33331c-2.00504,1.23917 -3.33334,1.66669 -5,3.33334c-1.66669,1.66666 -2.36478,5.69812 -5,8.33334c-2.63522,2.63522 -4.09802,2.82239 -5,5c-0.63779,1.53979 -0.48816,2.15479 -1.66669,3.33331c-1.17853,1.17853 -1.15424,3.64337 -3.33331,6.66669c-2.75635,3.82422 -5.31003,6.15421 -8.33334,8.33331c-1.91211,1.37817 -2.69553,5.12686 -3.33334,6.66669c-0.90198,2.17758 -2.43134,2.82239 -3.33331,5c-0.63779,1.53979 1.17853,3.82147 0,5c-1.17853,1.17853 -1.0289,1.79352 -1.66669,3.33331c-0.90198,2.17761 -5.22,6.25888 -11.66666,10c-5.19748,3.0162 -11.9183,4.05774 -15,8.33334c-0.97452,1.35205 -3.04071,0.16315 -5,3.33334c-0.87622,1.41776 -1.66666,1.66666 -3.33334,3.33331c-3.33334,3.33331 -8.33331,5 -11.66666,8.33334c-1.66666,1.66666 -3.33334,1.66666 -3.33334,3.33334c0,3.33331 0,5 0,6.66666c0,1.66666 -2.43134,1.15573 -3.33331,3.33334c-0.63779,1.53979 -1.66669,1.66666 -3.33334,1.66666c-1.66666,0 -5,0 -6.66666,0c-5,0 -6.66669,0 -8.33334,0c-1.66666,0 -3.33334,0 -8.33334,0c-3.33331,0 -8.33331,0 -10,0c-1.66666,0 -3.33331,-1.66666 -6.66666,-1.66666c-1.66666,0 -3.33334,-1.66669 -6.66666,-1.66669c-5,0 -6.92041,-0.39105 -10,-1.66666c-2.17761,-0.90198 -2.15482,-2.15482 -3.33334,-3.33334c-2.35703,-2.35703 -6.79736,-0.35022 -11.66666,1.66669c-3.44308,1.42618 -8.33334,5 -11.66669,6.66666c-3.33331,1.66666 -6.66666,3.33334 -8.33331,5c-1.66669,1.66666 -3.08789,3.62183 -5,5c-3.02332,2.17908 -5.00003,3.33334 -6.66669,6.66666c-1.66669,3.33334 -3.33331,3.33334 -3.33331,5c0,1.66669 -1.66669,1.66669 -1.66669,3.33334c0,1.66666 -1.66666,3.33334 -1.66666,5c0,1.66666 -0.76468,2.82242 -1.66666,5c-0.63779,1.53979 -1.66669,1.66666 -1.66669,3.33334c0,3.33331 1.53394,5.27994 8.33334,8.33331c8.18762,3.67679 13.8215,3.8215 15,5c1.17853,1.17853 -2.84244,5.577 -6.66666,8.33334c-6.04666,4.35822 -11.79355,4.36221 -13.33334,5c-2.17758,0.90198 -3.33334,3.33334 -5,5c-1.66666,1.66666 -5.81042,4.70624 -6.66666,8.33334c-0.3829,1.62207 -1.66669,3.33331 -3.33334,5c-1.66666,1.66666 -3.33334,5 -5,6.66666c-3.33333,3.33334 -7.68974,5.495 -11.66667,10c-2.46638,2.79388 -3.64334,4.48758 -6.66666,6.66666c-1.91212,1.37817 -1.66667,3.33334 -1.66667,5c0,1.66669 0,3.33334 0,5c0,1.66669 1.14874,4.22488 -1.66667,6.66669c-3.9816,3.45322 -6.34274,5.74734 -13.33333,8.33331c-6.44501,2.38416 -13.13092,7.48911 -18.33333,8.33334c-3.2903,0.53394 -6.15573,2.43134 -8.33334,3.33334c-1.53979,0.63782 -1.71124,1.28372 -3.33333,1.66666c-3.62709,0.85626 -8.03957,4.14374 -11.66667,5c-1.62207,0.38293 -2.1548,0.48816 -3.33333,1.66669c-1.17851,1.17853 -2.15483,0.4881 -3.33333,1.66663c-1.17853,1.17853 0,5 0,6.66669c0,1.66669 0,3.33331 0,5c0,1.66669 0,3.33331 0,5l0,1.66669" id="svg_1" stroke="#000" fill="none"/>
  <path stroke-width="4" d="m483.33335,9.16667c0,1.66667 0.48816,2.15485 1.66663,3.33333c1.17853,1.17851 0,3.33334 0,5c0,1.66667 0.76471,2.82239 1.66669,5c0.63782,1.5398 0,3.33334 0,5c0,1.66667 0,3.33333 0,5c0,1.66666 1.66669,1.66666 1.66669,3.33333c0,1.66667 0,3.33334 0,6.66667c0,1.66666 0.48816,2.15485 1.66663,3.33333c1.17853,1.17851 0,3.33334 0,6.66667c0,1.66666 1.17853,3.82149 0,5c-1.17847,1.17848 -1.66663,1.66666 -1.66663,3.33333c0,1.66667 -0.48816,2.15481 -1.66669,3.33334c-1.17853,1.17851 -0.12689,2.69551 -1.66669,3.33334c-2.17755,0.90199 -1.66663,3.33333 -1.66663,5c0,1.66666 0.48816,2.15485 1.66663,3.33333c1.17853,1.17851 1.66669,1.66667 1.66669,3.33334c0,1.66666 0,3.33334 0,5c0,1.66666 0,3.33334 0,5c0,1.66666 -1.17853,3.82149 0,5c1.17853,1.17853 1.02887,1.79353 1.66669,3.33333c0.90198,2.17758 2.15479,2.15482 3.33331,3.33334c1.17853,1.1785 0,3.33333 0,5c0,1.66666 -1.15424,3.64336 -3.33331,6.66666c-1.37817,1.91214 -4.48907,5.76468 -6.66669,6.66667c-1.53979,0.63782 -1.02887,1.79353 -1.66669,3.33333c-0.90198,2.17758 -3.33331,1.66667 -3.33331,3.33334c0,1.66666 -0.63782,3.46021 0,5c0.90198,2.17761 2.82239,4.09801 5,5c1.53979,0.63782 2.65662,2.52167 6.66669,5c4.48334,2.77083 6.66663,3.33333 6.66663,5c0,3.33333 0.38293,5.04459 0,6.66666c-0.8562,3.62708 -1.66663,5 -1.66663,6.66667c0,1.66667 1.66663,5 1.66663,6.66667c0,1.66666 1.66669,3.33333 1.66669,5c0,1.66666 0,3.33333 0,5c0,1.66666 2.15485,2.15485 3.33331,3.33333c1.17853,1.17851 3.64337,4.48761 6.66669,6.66667c1.91211,1.37817 4.3233,4.18834 8.33331,6.66666c4.48334,2.77086 13.33337,5 16.66669,5c1.66669,0 1.66669,1.66667 3.33331,1.66667c1.66669,0 1.66669,1.66667 1.66669,5c0,1.66667 -1.02887,6.79353 -1.66669,8.33333c-1.80396,4.35521 -2.15479,5.48816 -3.33331,6.66667c-1.17853,1.17853 -1.66669,1.66667 -1.66669,3.33333c0,3.33333 0.79047,3.58226 1.66669,5.00002c1.95929,3.17017 9.09802,2.82236 10,5c0.63782,1.53979 0,3.33331 0,6.66666c0,1.66666 -2.43134,2.82242 -3.33331,5c-0.63782,1.53979 -0.48816,2.15482 -1.66669,3.33334c-1.17853,1.17853 -3.33331,1.66666 -5,1.66666c-1.66669,0 -1.1557,2.43134 -3.33331,3.33334c-3.07965,1.27567 -2.56866,1.1557 -1.66669,3.33331c0.63782,1.53983 0,3.33334 0,5c0,1.66669 0.51239,3.64334 -1.66669,6.66669c-1.37817,1.91208 -1.66663,3.33331 -1.66663,5c0,1.66666 3.33331,3.33331 5,5c1.66663,1.66666 1.66663,3.33331 1.66663,5c0,1.66666 0,3.33331 0,5c0,1.66666 0,3.33331 0,5c0,1.66666 0,3.33334 -1.66663,5c-1.66669,1.66669 -2.15485,3.82147 -3.33337,5c-1.17847,1.1785 -2.15479,0.48813 -3.33331,1.66666c-1.17853,1.1785 -1.66669,3.33334 -3.33331,5c-1.66669,1.66669 -2.4314,2.82239 -3.33337,5c-0.63782,1.53979 -1.28369,3.37793 -1.66663,5c-0.85626,3.62711 -2.15485,3.82147 -3.33337,5c-1.17853,1.1785 1.02887,1.79352 1.66669,3.33334c0.90198,2.17761 1.66669,3.33331 1.66669,5c0,1.66666 -0.63782,3.46017 0,5c0.90198,2.17758 1.66663,5 3.33331,6.66666c1.66669,1.66666 2.05768,1.92041 3.33331,5c0.90198,2.17761 2.4314,2.82239 3.33337,5c0.63782,1.53979 0.4881,2.15482 1.66663,3.33334c1.17853,1.17853 1.66669,1.66666 3.33337,1.66666c1.66663,0 7.43134,-0.51096 8.33331,1.66666c0.63782,1.53983 0.63782,3.46021 0,5c-0.90198,2.17764 -3.08789,3.62183 -5,5c-3.02332,2.17908 -4.48761,3.64334 -6.66669,6.66669c-1.37817,1.91208 -6.15417,3.64334 -8.33331,6.66666c-1.37817,1.91211 -2.15485,2.15485 -3.33331,3.33334c-1.17853,1.1785 -3.91034,2.84244 -6.66669,6.66666c-2.17908,3.02335 -3.33331,3.33334 -3.33331,5c0,1.66666 -0.63782,3.46021 0,5c0.90198,2.17758 3.33331,1.66666 3.33331,3.33334c0,1.66666 0,3.33331 0,5c0,1.66666 0,3.33331 -1.66669,5c-1.66663,1.66666 -3.33331,3.33331 -5,5c-3.33331,3.33331 -3.82147,3.82147 -5,5c-1.17853,1.1785 -1.15424,1.97665 -3.33331,5c-2.75635,3.82422 -3.33331,5 -3.33331,6.66666c0,1.66666 -1.66669,3.33334 -1.66669,5c0,1.66666 0,3.33334 0,5c0,3.33334 0,6.66666 0,10c0,1.66666 0.51239,3.64334 -1.66669,6.66666c-1.37817,1.91211 -1.66663,3.33334 -1.66663,5c0,1.66669 -1.17853,3.8215 0,5c1.17847,1.1785 1.66663,1.66669 1.66663,5.00003c0,1.66663 0.76471,2.82239 1.66669,5c0.63782,1.53973 0,3.33331 0,5c0,1.66663 0,3.33331 0,5c0,1.66663 -0.48816,3.82147 -1.66669,5c-1.17847,1.17847 -1.66663,1.66663 -1.66663,3.33331c0,1.66669 0,3.33331 0,5l-1.66669,0" id="svg_2" stroke="#000" fill="none"/>
  <path d="m528.33335,224.16667c0,0 1.79352,-0.63782 3.33331,0c6.53284,2.70599 10.31708,8.13589 13.33331,13.33334c1.87054,3.22333 5,6.66666 5,11.66666c0,5 -1.59192,9.2486 -3.33331,15c-1.44891,4.78546 -1.66669,6.66666 -1.66669,8.33334c0,3.33331 0,5 0,10c0,1.66666 0,3.33331 0,6.66666c0,1.66666 0.48816,2.15482 1.66669,3.33334c2.35699,2.35699 1.02887,3.46017 1.66669,5c0.90198,2.17758 4.09802,4.48904 5,6.66666c0.63782,1.53979 0,3.33334 0,5c0,1.66666 0,3.33334 0,5c0,1.66666 0,3.33334 0,5c0,1.66666 0,5 0,6.66666c0,1.66669 3.33331,6.66666 5,8.33334c1.66663,1.66666 3.82147,3.8215 5,5c1.17847,1.1785 1.66663,1.66666 1.66663,3.33334c0,1.66666 0,5 0,6.66666c0,1.66666 1.66669,1.66666 1.66669,3.33334c0,1.66666 0,3.33331 0,5c0,1.66666 1.95514,3.08789 3.33331,5c2.17908,3.02332 2.69556,5.12686 3.33337,6.66666c0.90198,2.17758 2.43134,2.82239 3.33331,5c0.63782,1.53979 0.12689,2.69553 1.66669,3.33334c2.17755,0.90198 5.25372,2.05771 8.33331,3.33331c2.17761,0.90201 3.71625,1.71127 3.33331,3.33334c-0.8562,3.62708 -2.82092,6.97665 -5,10c-1.37817,1.91208 -2.15479,5.48816 -3.33331,6.66666c-1.17853,1.17853 -1.66669,1.66669 -1.66669,3.33334c0,1.66666 0,3.33334 0,5c0,1.66666 1.66669,1.66666 3.33337,3.33334c1.66663,1.66666 1.66663,3.33331 1.66663,5c0,1.66666 0,3.33331 0,5c0,3.33331 0,5 0,6.66666c0,1.66666 0,3.33334 0,5c0,1.66666 -2.15479,2.15482 -3.33331,3.33334c-1.17853,1.17853 -1.66669,1.66666 -1.66669,3.33331c0,1.66669 -0.63782,3.46021 0,5c0.90198,2.17764 3.33337,3.33334 3.33337,5c0,1.66669 -1.35443,3.67804 -5,6.66669c-4.64722,3.80978 -7.17761,5.76468 -5,6.66666c1.53979,0.63779 3.33331,1.66666 5,3.33334c1.66663,1.66666 3.49646,4.70737 6.66663,6.66666c1.41779,0.87625 3.82147,2.15482 5,3.33334c1.17853,1.1785 3.33331,1.66666 5,3.33334c1.66669,1.66669 3.33337,1.66663 5,3.33331c1.66669,1.66669 5.76471,1.1557 6.66669,3.33331c0.63782,1.53979 -0.63782,3.46027 0,5c0.90198,2.17761 1.66669,3.33337 1.66669,6.66669c0,1.66669 2.43134,2.82239 3.33331,5c0.63782,1.53979 0,3.33331 0,5c0,1.66669 0.48816,2.15479 1.66669,3.33331c1.17853,1.17853 -1.17847,3.82153 0,5c1.17847,1.17847 1.1557,2.4314 3.33331,3.33337c1.53979,0.63782 1.66669,1.66663 3.33331,1.66663c1.66669,0 3.82147,0.48816 5,1.66669c1.17853,1.17853 3.33337,1.66669 5,1.66669c1.66669,0 1.91211,1.95514 0,3.33331c-3.02332,2.17908 -3.33331,3.33331 -1.66663,3.33331c3.33331,0 5.76465,1.15576 6.66663,3.33337c0.63776,1.53979 1.02887,1.79352 1.66669,3.33331c0.90198,2.17761 0.48816,3.82147 1.66669,5c1.17847,1.17847 3.33331,1.66669 5,1.66669c1.66663,0 2.15479,0.4881 3.33331,1.66663c1.17853,1.17853 1.02893,3.46021 1.66669,5c0.90198,2.17761 3.33331,3.33337 5,5l0,1.66669l1.66663,0l0,1.66669" id="svg_3" stroke="#000" fill="none"/>
  <path d="m358.33332,262.50001c1.66669,1.66666 5,6.66666 8.33334,10c3.33334,3.33331 5.90079,6.75583 6.66666,10c0.85626,3.62708 1.66669,6.66666 1.66669,10c0,5 0,8.33331 0,10c0,1.66666 0,6.66666 0,8.33331c0,5 -0.76584,8.42252 0,11.66669c0.85623,3.62708 1.66666,5 3.33331,6.66666c1.66669,1.66666 1.66669,3.33334 1.66669,5c0,3.33334 0,6.66666 0,8.33334c0,1.66666 0,5 0,6.66666c0,1.66666 0,3.33334 0,5c0,1.66666 -1.66669,1.66666 -1.66669,3.33334c0,1.66666 0.51794,4.22485 3.33334,6.66666c3.9816,3.45322 11.37289,4.14377 15,5c3.24417,0.76584 3.8215,0.48816 5,1.66666c1.17853,1.17853 0,3.33334 0,5c0,1.66669 1.2756,5.25372 0,8.33334c-0.90198,2.17758 -3.33334,5 -3.33334,6.66666c0,1.66669 -1.66666,1.66669 -1.66666,3.33334c0,1.66666 0,3.33334 0,5c0,1.66666 0,3.33334 3.33334,5c3.33331,1.66666 7.31146,4.86267 11.66666,6.66666c1.53979,0.63779 2.15482,0.48816 3.33334,1.66669c1.1785,1.1785 2.43134,2.82239 3.33331,5c0.63779,1.53979 0,6.66666 0,8.33331c0,5 2.35703,9.30966 0,11.66669c-1.1785,1.1785 -1.66666,1.66666 -1.66666,3.33331c0,1.66669 -0.63779,3.46021 0,5c1.80399,4.35519 5.91528,6.59195 11.66669,8.33334c3.19031,0.96594 5.12683,2.69556 6.66663,3.33334c2.17761,0.90198 2.4314,2.82236 3.33337,5c0.63782,1.53979 1.66663,3.33331 3.33331,5c1.66669,1.66666 3.33331,3.33331 6.66669,5c6.66663,3.33331 13.13092,7.48911 18.33331,8.33334c1.64514,0.26697 2.43134,1.1557 3.33331,3.33331c0.63782,1.53979 0,3.33331 0,5c0,3.33331 -0.81042,6.37292 -1.66663,10c-0.38293,1.62213 -1.66669,3.33331 -1.66669,6.66669c0,1.66663 -0.63782,3.46021 0,5c0.90198,2.17761 4.66168,3.7608 6.66669,5c4.48334,2.77081 6.02881,5.12689 6.66663,6.66663c0.90198,2.17761 1.66669,5 1.66669,6.66669c0,1.66669 0.63782,5.12689 0,6.66669c-0.90198,2.17761 -1.66669,5 -1.66669,6.66663c0,1.66669 0,5 0,6.66669c0,1.66669 0,3.33331 0,5c0,1.66669 2.4314,2.82239 3.33337,5c0.63782,1.53979 0,3.33331 0,6.66669c0,1.66663 0,3.33331 0,5c0,1.66663 3.33331,1.66663 10,5l3.33331,1.66663l1.66669,0l1.66663,1.66669" id="svg_4" stroke="#000" fill="none"/>
  <path d="m315.00001,304.16667c0,1.66666 -0.86694,5.53946 -3.33334,8.33334c-3.97693,4.505 -12.04807,7.88269 -20,15c-5.26886,4.71585 -6.66666,6.66666 -6.66666,8.33331c0,1.66669 1.66666,5 6.66666,10c3.33334,3.33334 6.66666,8.33334 10,11.66669c1.66666,1.66666 2.5675,3.42249 3.33334,6.66666c0.85623,3.62711 1.66666,6.66666 1.66666,8.33334c0,3.33331 -1.35242,6.89105 -5,11.66666c-3.19913,4.18848 -3.33334,5 -3.33334,6.66666c0,1.66669 0,5 0,8.33334c0,3.33334 1.66669,6.66666 1.66669,10c0,1.66666 0.63779,3.46021 0,5c-1.80399,4.35522 -9.7074,6.8298 -11.66669,10c-0.87622,1.41776 -0.24545,3.62183 1.66669,5c3.02332,2.17905 2.95038,3.37793 3.33331,5c0.85626,3.62711 1.66669,5 1.66669,6.66666c0,3.33334 -2.93515,7.35983 -8.33334,10c-4.73453,2.31558 -5,3.33334 -5,5c0,1.66669 3.68616,4.52353 8.33334,8.33334c3.64557,2.98865 5.48813,7.15482 6.66666,8.33334c1.1785,1.1785 0.39102,1.92041 1.66666,5c0.90201,2.17758 2.47711,3.03958 3.33334,6.66666c0.38293,1.62213 0,3.33331 0,6.66669c0,1.66663 0,5 0,6.66663c0,1.66669 -0.577,2.84247 -3.33334,6.66669c-2.17908,3.02332 -2.82092,5.31 -5,8.33331c-1.37817,1.91211 -3.82147,2.15485 -5,3.33337c-1.1785,1.17847 0,3.33331 0,5c0,1.66663 0,3.33331 0,5c0,1.66663 0.39105,1.92035 1.66669,5c0.90198,2.17755 3.33331,3.33331 5,5c1.66666,1.66663 3.33331,3.33331 5,5c3.33331,3.33331 3.33331,5 3.33331,6.66663c0,1.66669 -1.66666,3.33337 -3.33331,5l0,1.66669l0,1.66669l0,-1.66669" id="svg_5" stroke="#000" fill="none"/>
  <path d="m548.33335,292.50001c1.66663,1.66666 2.99146,2.03369 8.33331,6.66666c6.29547,5.46002 12.87329,8.70456 18.33331,15c4.633,5.34186 9.1438,6.37292 10,10c0.38293,1.62207 0,3.33334 0,6.66666c0,3.33334 0,8.33334 0,11.66669c0,3.33331 -0.76587,5.08917 0,8.33331c0.85626,3.62711 2.56757,5.08917 3.33337,8.33334c0.8562,3.62708 3.91028,6.17578 6.66663,10c2.17908,3.02335 6.15576,5.76468 8.33337,6.66666c1.53979,0.63779 1.71118,1.28375 3.33331,1.66669c3.62708,0.85623 5.31,2.82092 8.33331,5c1.91211,1.37817 2.15485,3.82147 3.33337,5c1.17847,1.1785 5.76465,1.15573 6.66663,3.33331c1.27557,3.07962 0.86578,6.73126 1.66669,11.66669c0.84424,5.20242 2.43134,6.15573 3.33331,8.33331c0.63782,1.53983 0.12689,2.69553 1.66669,3.33334c2.17761,0.90198 3.97815,4.86267 8.33331,6.66666c1.53979,0.63782 3.82153,0.48819 5,1.66669c1.17853,1.1785 1.02887,1.79352 1.66669,3.33331c0.90198,2.17764 4.15576,3.13092 5,8.33334c0.26697,1.64514 0.51794,6.80042 1.66669,11.66666c0.8562,3.62708 2.05774,6.92041 3.33331,10c0.90198,2.17764 2.15485,2.15485 3.33331,3.33334c1.17853,1.1785 1.66669,1.66666 3.33337,1.66666c1.66663,0 3.33331,0 5,0c3.33331,0 3.82147,0.48816 5,1.66669c1.17847,1.1785 1.95514,1.4212 3.33331,3.33331c2.17914,3.02332 1.41992,5.38062 3.33331,10c0.90198,2.17764 0.39111,5.25375 1.66669,8.33334c1.80396,4.35516 4.09802,4.48907 5,6.66669c0.63782,1.53973 1.66669,5 3.33331,6.66663c1.66669,1.66669 2.47711,3.03961 3.33337,6.66669c0.38293,1.62207 1.4212,1.95514 3.33331,3.33331c3.02332,2.17908 5,3.33337 6.66669,3.33337l1.66663,1.66663l1.66669,1.66669l1.66669,0" id="svg_6" stroke="#000" fill="none"/>
  <path d="m498.33335,417.50001c1.66663,0 2.95038,0.04459 3.33331,1.66666c0.85626,3.62711 4.35107,6.93213 6.66669,11.66666c2.6402,5.39819 5.26697,6.6882 5,8.33334c-0.84424,5.20242 -2.82092,6.97668 -5,10c-1.37817,1.91211 -1.66669,3.33334 -1.66669,5c0,3.33334 2.48907,6.46426 3.33331,11.66666c0.53394,3.29031 0,6.66669 0,8.33334c0,3.33334 0,5 0,8.33331c0,1.66669 -1.17847,3.82153 0,5c1.17853,1.17853 1.4212,1.9552 3.33337,3.33337c3.02332,2.17908 4.48755,3.64331 6.66663,6.66663c1.37817,1.91217 3.68616,2.85687 8.33337,6.66669c3.64557,2.98865 4.36218,3.46021 5,5c0.90198,2.17761 0.4881,3.82147 1.66663,5c1.17853,1.17853 1.66669,1.66669 1.66669,3.33331c0,1.66669 -0.15607,3.50568 1.66669,5c4.64728,3.80981 9.70624,4.1438 13.33331,5c3.24414,0.76581 1.82983,3.04071 5,5c1.41779,0.87622 3.33331,1.66669 6.66669,1.66669c1.66663,0 5.48816,0.48822 6.66663,1.66669c2.35699,2.35699 1.66669,3.33331 3.33337,3.33331c5,0 8.33331,1.66669 13.33331,1.66669c1.66669,0 3.33331,0 3.33331,1.66663c0,1.66669 0,3.33337 1.66669,5l0,1.66669l1.66669,3.33331" id="svg_7" stroke="#000" fill="none"/>
  <path d="m459.99998,479.16667c0,1.66669 -1.66663,3.33331 -5,6.66669c-1.66663,1.66663 -2.15485,5.48816 -3.33331,6.66663c-1.17853,1.17853 -4.09802,2.82239 -5,5c-0.63782,1.53979 -3.19604,3.97815 -5,8.33337c-1.27557,3.07959 -1.15424,6.97668 -3.33331,10c-2.75635,3.82428 -3.33337,6.66663 -3.33337,8.33331c0,1.66669 0,3.33331 0,5c0,1.66669 1.27563,3.58704 0,6.66669c-0.90198,2.17755 -2.45709,3.58221 -3.33331,5c-1.95929,3.17017 -6.71661,2.51874 -13.33334,3.33331c-6.82034,0.83966 -15,1.66669 -18.33331,1.66669c-1.66669,0 -3.33334,0 -3.33334,1.66663c0,3.33337 -2.47708,6.37292 -3.33334,10c-0.76587,3.2442 1.17853,7.15485 0,8.33337c-1.1785,1.17853 -1.66666,1.66663 -3.33331,1.66663l0,3.33337l-1.66669,1.66663l1.66669,0" id="svg_8" stroke="#000" fill="none"/>
  <path d="m290.00001,419.16667c1.66666,0 4.73013,2.44254 13.33331,5c8.14606,2.4216 14.48761,3.64334 16.66669,6.66666c1.37817,1.91211 1.66666,5 1.66666,8.33334c0,3.33334 0,6.66666 0,10c0,3.33334 -1.2756,5.25372 0,8.33334c0.90198,2.17758 0.48813,3.82147 1.66666,5c1.17853,1.17853 3.33334,1.66663 6.66669,3.33331c3.33331,1.66666 6.28375,1.71127 6.66666,3.33334c0.85623,3.62711 4.15576,4.79761 5,10c0.26697,1.64514 0,6.66669 0,10c0,3.33331 1.1785,7.15485 0,8.33331c-1.1785,1.17853 0,0 0,1.66669c0,1.66669 1.66666,5 1.66666,10c0,5 0,8.33331 0,10c0,1.66669 2.15485,0.48816 3.33334,1.66669c1.1785,1.17847 0.2489,2.45709 1.66666,3.33331c3.1702,1.95929 5,5 8.33334,5c5,0 5.48813,0.48816 6.66666,1.66669c1.17853,1.17853 3.33334,0 5,0c1.66669,0 7.64301,-2.35699 10,0c1.1785,1.17847 0,3.33331 0,5c0,1.66663 1.66669,3.33331 5,3.33331c3.33334,0 6.79355,-0.63782 8.33334,0c2.17761,0.90198 5,3.33331 11.66666,3.33331c10,0 19.30966,-2.35699 21.66666,0c1.17853,1.17853 0,5 0,6.66669c0,1.66669 2.82239,4.09802 5,5c3.07965,1.27563 3.46021,1.02893 5,1.66669c2.17761,0.90198 5,3.33331 8.33337,3.33331l1.66663,0l1.66669,0" id="svg_10" stroke="#000" fill="none"/>
  <path d="m518.33335,380.83332c1.66663,0 3.64331,-0.51239 6.66663,1.66669c5.73633,4.13455 10.28851,9.75455 11.66669,11.66666c2.17914,3.02332 1.66669,6.66666 0,11.66666c-1.66669,5 -5.82245,11.46426 -6.66669,16.66669c-0.26697,1.64514 -0.38293,3.3779 0,5c0.85626,3.62708 3.33337,5 3.33337,10c0,5 1.02881,10.12686 1.66663,11.66666c0.90198,2.17761 1.66669,3.33331 3.33337,5c1.66663,1.66666 1.66663,3.33334 1.66663,5c0,3.33334 -0.51245,6.97668 1.66669,10c1.37817,1.91211 5.81042,3.03958 6.66669,6.66666c0.38293,1.6221 0,3.33334 0,5.00003c0,1.66663 1.66663,3.33331 1.66663,5c0,1.66663 1.66669,1.66663 1.66669,3.33331c0,3.33331 0,6.66669 0,10c0,1.66669 -0.29376,5.81042 3.33331,6.66669c3.2442,0.76587 7.4314,1.1557 8.33337,3.33331c0.63782,1.53979 -1.17853,3.82147 0,5c1.17847,1.17847 3.03955,2.47711 6.66663,3.33331c6.48834,1.53168 8.33337,1.66669 8.33337,3.33337c0,1.66663 -0.51099,4.09802 1.66663,5c1.53979,0.63782 1.66669,1.66663 1.66669,5c0,3.33331 -0.63782,6.79352 0,8.33331c0.90198,2.17761 6.79742,1.31641 11.66669,3.33331c3.44312,1.42615 3.33331,3.33337 6.66663,5c3.33337,1.66669 5.48822,3.82153 6.66669,5c1.17853,1.17853 1.66669,1.66669 1.66669,3.33337c0,1.66663 1.15424,5.31 3.33331,8.33331c1.37817,1.91211 2.15485,2.15485 3.33331,3.33331c1.17853,1.17853 1.66669,1.66669 1.66669,3.33337l0,1.66663" id="svg_11" stroke="#000" fill="none"/>
  <path d="m503.33335,404.16667c-1.66669,0 -4.61658,4.24771 -11.66669,6.66666c-8.03839,2.75803 -16.46429,5.82245 -21.66669,6.66669c-4.93542,0.80093 -5,1.66666 -5,3.33331c0,3.33334 -1.66663,8.33334 -1.66663,13.33334c0,5 1.17853,8.8215 0,10c-1.17853,1.17853 -3.33337,0 -10,0c-8.33337,0 -13.33337,-1.66666 -18.33337,-1.66666c-5,0 -7.01129,3.02106 -10,6.66666c-3.80981,4.64719 -6.1557,9.09802 -8.33331,10c-1.53979,0.63779 -7.01944,1.19019 -11.66666,5c-3.64557,2.98868 -5.48816,5.48813 -6.66669,6.66666c-1.17853,1.17853 -0.48816,2.15485 -1.66666,3.33334c-1.1785,1.1785 -4.36218,1.79352 -5,3.33334c-0.90198,2.17758 -2.43134,2.82236 -3.33334,4.99997c-1.27567,3.07965 0,5 0,6.66669c0,1.66669 1.91339,5.38062 0,10c-0.90198,2.17761 -3.33331,1.66669 -5,1.66669c-1.66666,0 -1.13272,3.37634 -1.66666,6.66663c-0.84424,5.20239 -3.76083,4.66168 -5,6.66669c-2.77081,4.48334 -3.33334,6.66669 -5,8.33331l-1.66666,0l-1.66669,1.66669" id="svg_12" stroke="#000" fill="none"/>
  <path d="m521.66666,352.50001c-1.66669,0 -3.27301,0.19312 -8.33331,1.66666c-6.59784,1.92126 -18.33337,1.66666 -28.33337,5c-10,3.33334 -12.82092,6.97665 -15,10c-1.37817,1.91208 -1.02881,5.12686 -1.66663,6.66666c-0.90198,2.17764 -1.02887,3.46021 -1.66669,5c-0.90198,2.17764 -5.24054,4.89023 -6.66669,8.33334c-2.01691,4.86926 -2.15479,7.15482 -3.33331,8.33334c-1.17853,1.17853 -3.08789,1.95514 -5,3.33331c-3.02332,2.17908 -3.82147,2.15485 -5,3.33334c-1.17853,1.17853 -1.02887,1.79352 -1.66669,3.33334c-0.90198,2.17758 -1.66663,3.33331 -3.33331,3.33331c-3.33331,0 -10,0 -16.66669,0c-5,0 -7.47708,-0.29376 -8.33331,3.33334c-1.53168,6.48831 -0.81042,13.03958 -1.66666,16.66666c-0.38293,1.6221 -1.66669,3.33334 -5,5c-3.33334,1.66669 -4.61707,5.04459 -5,6.66669c-0.85626,3.62708 -3.33334,5 -5,6.66666c-1.66669,1.66666 -3.33334,1.66666 -3.33334,3.33334c0,1.66666 -0.39105,3.58704 -1.66666,6.66666c-1.80399,4.35522 -5,6.66666 -6.66669,8.33334c-1.66666,1.66666 -3.03955,4.14374 -6.66666,5c-3.24417,0.76584 -3.85126,2.5582 -6.66666,5c-3.9816,3.45322 -12.18335,5.56253 -16.66669,8.33334c-2.00497,1.23914 -3.33331,1.66663 -8.33331,1.66663c-5,0 -8.46021,1.02887 -10,1.66669c-2.17764,0.90198 -5,1.66669 -6.66669,3.33331l-3.33331,0l-1.66669,0" id="svg_13" stroke="#000" fill="none"/>
  <path d="m296.66666,399.16667c0,1.66666 -2.18332,2.22916 -6.66666,5c-4.01001,2.47833 -4.50909,7.24365 -8.33334,10c-6.04663,4.35818 -15.12131,8.13654 -23.33334,13.33334c-5.07788,3.21344 -5,5 -5,8.33331c0,3.33334 -1.66666,8.33334 -1.66666,15c0,5 0.3829,6.71127 0,8.33334c-0.85623,3.62711 -2.94226,6.92038 -1.66666,10c1.80399,4.35519 10.22,7.92554 16.66666,11.66669c5.19745,3.01617 5.63779,5.12689 5,6.66663c-1.80399,4.35522 -5,5 -5,6.66669c0,3.33331 -0.39105,5.25372 -1.66666,8.33331c-1.80399,4.35522 -7.20612,7.53363 -10,10c-4.50504,3.97693 -5.76468,4.48907 -6.66669,6.66669c-0.63782,1.53979 -1.15421,3.64337 -3.33331,6.66669c-1.37817,1.91211 -3.08792,5.28845 -5,6.66663c-3.02335,2.17908 -6.66669,3.33337 -8.33334,5c-1.66669,1.66669 -1.66666,3.33337 -1.66666,5c0,1.66669 0,3.33337 0,5c0,1.66669 0,3.33337 0,5l0,1.66669l1.66666,0" id="svg_14" stroke="#000" fill="none"/>
  <path stroke="#000" d="m160,425.83334c0,1.62601 0.56193,2.69254 4.33333,8.13006c5.1833,7.47314 9.09568,15.63224 12.99999,19.5122c2.42137,2.40624 2.8889,3.25204 2.8889,6.50409c0,1.62601 0,3.25201 0,6.50406c0,1.62601 0,3.25204 0,4.87805c0,3.25204 -0.71276,6.3066 -1.44444,11.38213c-0.69412,4.81505 -1.44446,8.13006 -1.44446,11.38207c0,1.62604 0,4.87805 0,8.13012c0,3.25201 -0.48747,7.00809 -2.88887,11.38207c-1.07394,1.9561 -1.44446,3.25207 -1.44446,4.87805c0,1.62604 1.00039,3.55451 2.8889,6.50409c1.19442,1.86547 0.84612,4.20452 2.8889,6.50409c1.02136,1.14978 1.44444,1.62598 2.88887,3.25201c1.44446,1.62604 7.2222,3.25207 15.8889,6.50409c4.33333,1.62598 5.77777,3.25201 5.77777,4.87805c0,1.62598 -0.66272,2.75355 -1.44444,4.87805c-0.55275,1.50224 -0.42307,2.10223 -1.44444,3.25201c-1.02139,1.14978 0,3.25201 -1.44446,3.25201l0,1.62604" id="svg_15" fill="none"/>
  <path stroke-width="4" d="m463.33334,82.5c-1.66669,0 -0.51794,2.5582 -3.33334,5c-3.9816,3.45322 -11.39679,5.77586 -20,8.33334c-8.14606,2.42159 -15.03409,4.17519 -25,5c-10.10339,0.83618 -25,1.66666 -41.66666,1.66666c-13.33334,0 -21.15576,-0.76467 -23.33334,-1.66666c-1.53979,-0.6378 -2.05774,1.92039 -3.33334,5c-1.80399,4.35519 -3.7244,8.58706 -5,11.66666c-0.90198,2.1776 -2.15482,3.82149 -3.33331,5c-1.17853,1.17853 -3.03958,2.4771 -6.66669,3.33334c-1.62207,0.38292 -1.75583,0.90081 -5,1.66666c-3.62708,0.85625 -5,1.66667 -6.66666,1.66667c-1.66666,0 -5,0 -10,0c-1.66666,0 -5.04996,-0.81454 -11.66666,0c-6.82037,0.83961 -16.07919,4.95418 -23.33334,6.66666c-3.24417,0.76584 -6.66666,1.66667 -8.33334,1.66667c-6.66666,0 -13.71393,-0.24675 -18.33333,1.66667c-2.1776,0.90199 -5.31001,2.82092 -8.33333,5c-1.91211,1.37817 -5.16315,3.04071 -8.33333,5c-1.41776,0.87622 -5.51668,0.56248 -10,3.33333c-4.01001,2.47832 -5.48816,5.48816 -6.66667,6.66667c-1.17851,1.17851 -3.22357,1.90715 -6.66667,3.33333c-4.86928,2.01692 -11.79738,6.31642 -16.66666,8.33333c-3.4431,1.42618 -3.8215,2.15485 -5,3.33334c-1.1785,1.1785 -1.37292,4.14375 -5,5c-1.62209,0.38292 -0.48816,2.15482 -1.66667,3.33333c-1.17851,1.17851 -3.33333,1.66667 -3.33333,3.33333c0,1.66667 -0.48816,1.17851 -1.66667,0c-1.17851,-1.17851 -1.66667,-1.66666 -3.33333,-1.66666c-1.66667,0 -3.64336,-0.51242 -6.66667,1.66666c-1.91212,1.37817 -5,3.33334 -6.66667,3.33334c-1.66666,0 -3.37637,0.53394 -6.66666,0c-5.20241,-0.84424 -11.79355,-2.30449 -13.33334,-1.66667c-2.1776,0.90199 -1.79352,2.69553 -3.33333,3.33333c-2.17761,0.90199 -3.33333,1.66667 -5,1.66667c-1.66667,0 -5.12687,-0.6378 -6.66666,0c-2.17761,0.90199 -3.33334,3.33333 -5,3.33333c-1.66667,0 -1.70868,1.4689 -10,3.33334c-6.70443,1.5076 -14.70739,1.8298 -16.66667,5c-0.87621,1.41774 0,3.33333 -1.66666,3.33333c-1.66666,0 -5.76467,1.15573 -6.66666,3.33333c-0.63781,1.53981 -1.66667,1.66667 -1.66667,3.33334c0,1.66666 -1.66666,3.33333 -3.33333,5c-1.66666,1.66666 -2.43134,2.82239 -3.33334,5c-0.6378,1.53979 -2.36477,2.36476 -5,5c-2.63522,2.63522 -4.64975,6.79738 -6.66667,11.66666c-1.42618,3.4431 -2.43134,6.15573 -3.33333,8.33334c-0.6378,1.53979 0,3.33333 0,5c0,1.66666 -0.38292,3.37791 0,4.99998c0.85624,3.62711 1.66667,8.33334 1.66667,10c0,3.33334 0,5 0,6.66669c0,1.66666 -0.48816,2.15482 -1.66667,3.33331c-2.35702,2.35703 -5.28849,1.42123 -6.66667,3.33334c-2.17909,3.02332 -2.45712,5.2489 -3.33333,6.66666c-1.95928,3.1702 -8.40221,3.0787 -15,5c-5.06028,1.47357 -5,3.33334 -5,5c0,1.66669 1.1785,3.8215 0,5c-1.17851,1.1785 -8.37535,3.13556 -16.66667,5c-6.70443,1.5076 -8.4602,2.69553 -10,3.33334c-2.1776,0.90198 -3.85001,0.5625 -8.33333,3.33334c-2.005,1.23917 -3.33333,1.66666 -6.66667,3.33331l-1.66667,0" id="svg_29" stroke="#000" fill="none"/>
  <path stroke="#000" d="m283.33333,134.16667c0,2.51632 3.91797,6.00044 10.52766,15.09804c6.30908,8.68384 12.23408,14.3266 12.86715,17.61436c0.44765,2.32479 0.19735,10.62032 -5.84871,20.13073c-6.80899,10.71047 -13.21653,14.64779 -15.20661,22.64706c-0.55196,2.21858 -0.14293,5.05152 0,7.54902c0.58929,10.29738 2.33947,15.09804 2.33947,17.61436c0,5.03269 0,7.54902 0,15.09804c0,5.03269 -1.16973,7.54902 -1.16973,10.06537l0,2.51635" id="svg_30" fill="none"/>
  <path d="m303.33334,179.16667c1.66666,0 1.9838,1.46919 5,6.66666c1.87057,3.22334 3.33331,6.66667 3.33331,11.66667c0,1.66667 0.81042,3.03957 1.66669,6.66667c0.38293,1.62207 3.08459,7.01674 10,11.66666c8.06467,5.42267 15,10 16.66666,11.66667c1.66666,1.66667 0.39102,3.58707 1.66666,6.66667c0.90201,2.17761 4.09802,4.48906 5,6.66666c0.63782,1.53981 -0.38293,3.37793 0,5c0.85626,3.62711 5,8.33334 10,11.66667c5,3.33334 10.31003,4.48755 13.33334,6.66666c1.91211,1.37817 3.33334,1.66669 3.33334,3.33334c0,1.66666 0,5 1.66666,6.66666c1.66666,1.66669 4.09802,2.82242 5,5c0.63782,1.53983 1.66666,3.33334 1.66666,6.66669c0,3.33331 1.0289,5.12686 1.66669,6.66666c0.90198,2.17758 3.84998,2.22916 8.33331,5c4.01001,2.47833 6.66669,5 8.33334,6.66666c1.66666,1.66669 2.15482,2.15482 3.33334,3.33334c1.1785,1.1785 0,3.33334 0,5c0,1.66666 1.66663,1.66666 3.33331,3.33334c1.66669,1.66669 1.0289,5.12686 1.66669,6.66666c0.90198,2.17758 2.43134,2.82242 3.33331,5c0.63779,1.53979 0.39108,3.58707 1.66669,6.66666c0.90198,2.17761 4.03143,4.03146 6.66666,6.66669c2.63522,2.63522 5.48816,2.15482 6.66666,3.33331c2.35703,2.35703 4.09802,6.15576 5,8.33334c1.2756,3.07962 1.66669,5 1.66669,6.66666c0,3.33334 0,6.66669 0,8.33334c0,1.66666 -0.3829,3.37793 0,5c0.85623,3.62711 1.15573,5.76468 3.33331,6.66666c1.53983,0.63782 1.66669,1.66669 1.66669,3.33334c0,3.33334 -0.76584,5.08917 0,8.33334c0.85623,3.62708 4.03143,7.36478 6.66666,10c2.63522,2.63522 6.15573,5.76468 8.33334,6.66666c1.53979,0.63779 1.1785,0.48816 0,1.66666c-1.17853,1.17853 -1.0289,1.79355 -1.66669,3.33334c-0.90198,2.17758 -5,3.33334 -5,5c0,1.66666 0,3.33334 0,5c0,1.66666 0.26697,3.35486 0,5c-0.84424,5.20239 -5,8.33334 -5,11.66666c0,1.66669 -0.96857,5.69809 1.66669,8.33334c2.63522,2.63522 5.81042,4.70624 6.66666,8.33334c0.76584,3.24414 0,10 0,15c0,3.33331 0.08578,7.16449 -1.66666,10c-1.95929,3.1702 -3.33334,5 -3.33334,6.66666c0,3.33334 -0.00003,6.66666 1.66666,8.33334c1.66669,1.66669 2.04037,4.83804 3.33334,8.33331c2.38416,6.44501 4.23416,11.75583 5,15.00003c0.85623,3.62708 1.66666,5 1.66666,8.33331c0,1.66669 0,3.33331 0,6.66669c0,3.33331 0,8.33331 0,10c0,3.33331 -0.38293,6.71124 0,8.33331c0.85626,3.62708 3.46021,4.36218 5,5c2.17764,0.90198 5.76468,2.82239 6.66669,5c0.63782,1.53979 3.33331,5 6.66666,8.33331l5,3.33337l3.33334,1.66663l0,1.66669" id="svg_31" stroke="#000" fill="none"/>
  <path stroke-width="2" d="m245,140.83333c0,1.66667 0,3.33334 0,5c0,1.66667 1.66667,1.66667 1.66667,3.33334c0,3.33333 1.54678,6.01842 5,10c2.44179,2.8154 3.82149,2.15483 4.99998,3.33333c2.35703,2.35703 -0.6981,4.03143 -3.33333,6.66667c-2.63522,2.63522 -4.09801,4.48906 -5,6.66666c-0.63782,1.53979 -2.47708,3.0396 -3.33333,6.66667c-0.38292,1.62209 -1.66667,5 -1.66667,6.66667c0,1.66666 -2.47708,1.37291 -3.33333,5c-0.76584,3.24416 -1.02887,5.12686 -1.66667,6.66666c-0.90199,2.1776 -3.33333,6.66667 -5,8.33334c-1.66666,1.66666 -1.95515,4.75455 -3.33333,6.66666c-2.17911,3.02333 -3.33333,6.66667 -5,10c-1.66667,3.33334 -3.33333,5 -3.33333,6.66667c0,1.66667 0.51094,4.09801 -1.66667,5c-1.53981,0.6378 -0.39107,1.92041 -1.66667,5c-0.90199,2.1776 -3.33333,3.33333 -3.33333,5c0,3.33333 -0.76584,6.75584 0,10c0.85625,3.62711 1.66667,6.66666 1.66667,8.33334c0,1.66666 0.26697,3.35483 0,5c-0.84424,5.20242 -4.68777,10.34467 -8.33334,13.33331c-4.64722,3.80978 -6.66666,6.66669 -6.66666,8.33334c0,1.66666 -1.2756,3.58707 0,6.66666c2.70598,6.53281 9.99998,8.33334 13.33333,11.66669c1.66667,1.66666 2.94229,3.58707 1.66667,6.66666c-0.90199,2.17761 -4.7961,5.11002 -6.66667,8.33334c-3.0162,5.19745 -7.24364,6.17578 -10,10c-2.17908,3.02332 -3.33333,3.33331 -3.33333,5c0,1.66666 -0.64479,4.86267 -5,6.66666c-1.53981,0.63782 -2.43135,1.15573 -3.33334,3.33334c-0.6378,1.53979 -2.85686,5.35281 -6.66666,10c-2.98865,3.64557 -6.66667,6.66666 -6.66667,8.33331c0,1.66669 0,3.33334 0,5c0,1.66669 0,5 0,6.66669c0,5 2.82089,8.64334 5,11.66666c1.37817,1.91211 1.66667,3.33334 1.66667,5c0,1.66666 1.66666,5 3.33333,8.33334c1.66667,3.33331 1.01775,5.26547 3.33333,10c2.64018,5.39819 5.82243,8.13089 6.66667,13.33331c0.26697,1.64517 0,3.33334 0,6.66669c0,5 0,8.33331 -3.33333,13.33331c-3.33334,5 -7.4771,8.03958 -8.33334,11.66669c-0.38292,1.62207 -0.51242,3.64331 1.66667,6.66666c2.75635,3.82425 8.13588,8.65045 13.33333,11.66666c3.22334,1.87057 3.33334,3.33334 3.33334,5c0,1.66669 1.27562,3.5871 0,6.66669c-1.804,4.35519 -3.33334,6.66666 -3.33334,8.33331c0,3.33334 2.1801,8.18277 8.33334,11.66669c5.97987,3.38571 10.00002,3.33334 13.33333,6.66666c1.66667,1.66669 0.5179,4.22485 3.33333,6.66669c3.98158,3.45319 9.09801,2.82239 10,5c0.63779,1.53979 1.66667,1.66663 1.66667,5c0,1.66663 -0.00002,5 -1.66667,6.66663c-1.66667,1.66669 -2.20612,2.53363 -5,5c-4.50502,3.97693 -4.09801,6.15576 -5,8.33337c-0.63779,1.53973 -0.38293,3.37793 0,5c0.85625,3.62708 3.33334,6.66663 5,8.33331c1.66667,1.66669 1.66667,3.33331 1.66667,5c0,1.66669 1.66667,1.66669 1.66667,3.33331c0,1.66669 -1.17848,3.82153 0,5c1.1785,1.17853 2.15482,0.48816 3.33333,1.66669c2.35701,2.35699 0,5 1.66667,5l0,1.66669" id="svg_32" stroke="#000" fill="none"/>
  <path stroke-width="3" d="m486.66666,52.5c1.66669,0 6.85397,-0.75491 15,1.66667c8.60321,2.55748 19.67075,9.0548 30.00003,13.33333c9.73853,4.03384 15,6.66668 16.66663,8.33334c1.66669,1.66668 5,5 6.66669,8.33333c1.66669,3.33334 4.08417,7.4175 8.33331,11.66667c4.24921,4.24918 6.98383,6.46922 10,11.66666c1.87061,3.22334 1.66669,6.66665 3.33337,8.33334c1.66663,1.66665 1.66663,3.33333 3.33331,5c1.66669,1.66666 3.33331,3.33333 5,3.33333c1.66669,0 3.33331,0 5,0c5,0 8.33331,0 13.33331,0c3.33337,0 6.69104,-0.49269 11.66669,0c8.45697,0.83741 14.79761,2.48911 20,3.33334c1.64514,0.26698 3.33331,0.00001 5,1.66667c1.66669,1.66666 6.97668,4.48759 10,6.66666c1.91211,1.37819 3.33331,3.33333 6.66669,5c3.33331,1.66666 6.17572,3.91031 10,6.66667c3.02332,2.17908 6.79736,2.98309 11.66663,5c3.44312,1.42619 3.82147,2.15483 5,3.33333c1.17853,1.17853 5.51666,2.22917 10,5c2.005,1.23917 1.66669,3.33334 1.66669,5c0,1.66667 0,3.33334 0,5c0,3.33334 0,6.66667 0,8.33334c0,1.66666 -0.63782,3.46021 0,5c0.90198,2.17761 5.26544,4.35107 10,6.66666c5.39819,2.64018 10.51666,3.89583 15,6.66667c2.005,1.23917 2.15479,3.82149 3.33331,5c1.17853,1.17853 1.9552,1.4212 3.33337,3.33333c2.17908,3.02332 3.82147,5.48816 5,6.66667c1.17847,1.17848 0.39099,1.92041 1.66663,5c1.80402,4.35522 8.03961,9.14375 11.66669,10c1.62207,0.38293 1.66669,1.66667 1.66669,3.33333c0,1.66667 0,3.33336 1.66663,6.66667c1.66669,3.33334 1.66669,5 1.66669,6.66667c0,1.66666 1.31641,1.79739 3.33331,6.66666c1.42615,3.44312 3.33337,6.66667 5,8.33333c1.66669,1.66669 1.58093,2.16452 3.33337,5c1.95929,3.1702 7.43134,2.82239 8.33331,5c0.63782,1.53983 1.66669,1.66669 3.33331,3.33334c1.66669,1.66669 7.4314,2.82239 8.33337,5c0.63782,1.53979 2.43134,2.82239 3.33331,5c0.63782,1.53979 2.49591,3.20969 3.33331,11.66666c0.16425,1.65857 0,5 0,8.33334c0,5 1.66669,6.66666 1.66669,8.33334c0,1.66666 -0.38293,3.3779 0,5c0.85626,3.62708 5.76471,6.1557 6.66669,8.33331c1.27563,3.07959 0.68481,6.15399 8.33331,11.66669c6.04663,4.35815 10,5 10,6.66666c0,1.66666 3.33331,3.33334 3.33331,5c0,3.33334 3.33337,6.66666 3.33337,10c0,5 -2.47711,9.70624 -3.33337,13.33334c-1.1488,4.86624 0,11.66666 0,15c0,1.66666 0,3.33331 0,5c0,3.33331 3.33337,6.66666 3.33337,8.33331c0,5 -0.73633,10.86548 5,15c6.04663,4.35815 15,6.66669 15,8.33334c0,1.66666 3.84998,5.5625 8.33331,8.33334c2.005,1.23917 1.66669,3.33331 1.66669,5c0,3.33331 2.10608,9.77579 11.66663,16.66666c6.04663,4.35818 8.33337,6.66666 8.33337,8.33334c0,3.33331 0.86548,7.59695 5,13.33331c2.17908,3.02332 1.66663,6.66669 1.66663,8.33334c0,3.33334 0,6.66666 0,10c0,5 -2.47705,9.70624 -3.33331,13.33334c-0.76587,3.24414 0,5 -1.66669,6.66666l0,1.66669l0,1.66663" id="svg_34" stroke="#000" fill="none"/>
  <path d="m643.33331,127.5c0,1.66667 -2.98987,6.81241 -6.66663,15c-4.58008,10.19916 -6.99854,16.77428 -8.33337,25c-0.84424,5.20239 -1.66663,6.66667 -1.66663,8.33333c0,3.33334 -1.66669,6.66667 -1.66669,15c0,8.33334 1.98383,14.80255 5,20c1.87061,3.22334 1.66669,5 1.66669,6.66667c0,1.66667 0,5.00002 1.66663,8.33333c1.66669,3.33336 3.33337,6.66667 3.33337,8.33334c0,1.66666 0,5 0,8.33333c0,5 -1.27557,8.58705 0,11.66667c0.90198,2.17757 1.66663,3.33333 1.66663,6.66667c0,3.33331 4.09802,7.82239 5,10c0.63782,1.53979 -0.38293,3.3779 0,5c1.71252,7.25418 13.22363,13.57382 16.66669,15c4.86926,2.01694 5,3.33331 5,6.66666c0,1.66666 0,5 0,6.66666c0,1.66669 0,3.33334 0,6.66669c0,1.66666 -0.51239,6.97665 1.66669,10c2.75635,3.82422 5.48816,3.8215 6.66663,5c1.17853,1.1785 1.66669,5 1.66669,8.33331c0,5 -0.8009,8.39792 0,13.33334c0.84424,5.20242 4.41223,8.40054 10,13.33334c4.505,3.97693 6.15424,8.64334 8.33331,11.66666c2.75635,3.82428 4.15576,6.46426 5,11.66666c0.53394,3.29031 1.66669,5 1.66669,8.33334c0,3.33334 0,6.66666 1.66669,10c1.66663,3.33334 1.66663,5 1.66663,6.66666c0,1.66669 -1.31635,6.79742 -3.33331,11.66669c-1.42621,3.44308 -1.66669,5 -1.66669,6.66666c0,1.66666 0.63782,3.46021 0,5c-1.80396,4.35519 -5,6.66666 -5,10c0,1.66666 -1.66663,3.33334 -5,5c-3.33331,1.66666 -6.15424,3.64334 -8.33331,6.66666c-1.37817,1.91214 -3.46405,1.31644 -8.33331,3.33334c-6.88623,2.85236 -14.09802,4.48907 -15,6.66666c-0.63782,1.53983 0,3.33334 -1.66669,5c-1.66669,1.66669 -6.66669,3.33337 -10,6.66669c-1.66669,1.66666 -1.79358,2.69553 -3.33331,3.33331c-4.35522,1.80399 -9.03143,4.03146 -11.66669,6.66669c-2.63525,2.63522 -1.66669,5 -5,6.66666c-3.33331,1.66666 -13.39526,0.58945 -20,6.66666c-2.74249,2.52344 -2.6955,3.46021 -3.33331,5c-0.90198,2.17764 -3.33337,3.33334 -3.33337,5l0,1.66669" id="svg_35" stroke="#000" fill="none"/>
  <path stroke="#000" d="m663.33331,292.5c0,1.62878 0.12689,2.63426 1.66669,3.25759c2.17761,0.88148 4.28516,5.99307 11.66669,9.77273c4.66846,2.39045 7.43134,2.75821 8.33331,4.88636c0.63782,1.5048 0,4.88636 3.33331,8.14392c3.33337,3.25759 10.14575,7.80831 18.33337,11.40154c3.39972,1.49198 3.12939,3.36504 5,6.51514c3.01617,5.07933 8.77008,13.2879 18.33331,17.91668c6.15796,2.98058 8.33331,1.62878 8.33331,3.25756c0,1.62881 1.97668,2.75681 5,4.88636c3.82428,2.69373 6.02887,5.01034 6.66669,6.51517c0.90198,2.12812 2.16168,4.25735 6.66669,8.14392c5.58777,4.82066 9.09802,4.38702 10,6.51517c0.63782,1.5048 1.37402,1.78822 3.33331,4.88636c1.75244,2.77104 0.48816,3.73462 1.66669,4.88636c1.17853,1.15171 3.04071,3.417 5,6.51514c0.87622,1.3855 1.46277,3.36507 3.33331,6.51514c3.01624,5.07933 5,8.14395 5,13.03031c0,1.62878 0,3.25759 -1.66669,8.14395c-1.66663,4.88636 -1.66663,8.14392 -1.66663,9.77273c0,1.62878 1.39966,3.27858 1.66663,4.88636c0.84424,5.08419 5.31714,9.57974 8.33337,14.65909c1.87054,3.15004 3.33331,6.51514 6.66663,9.77273c5,4.88636 11.19019,10.11752 15,14.65909c1.49432,1.78136 4.09802,4.38705 5,6.51514c0.63782,1.5048 1.15576,2.37608 3.33337,3.25759c3.07959,1.24661 3.33331,1.62875 5,3.25756c1.66663,1.62878 5.48816,2.10587 6.66663,3.25759c1.17853,1.15171 3.85004,0.54972 8.33337,3.25759c4.00995,2.42198 5,3.25756 5,4.88636l0,1.62878" id="svg_36" fill="none"/>
  <path d="m678.33331,352.5c1.66669,0 3.3833,-0.81454 10,0c6.82037,0.83963 15,5 21.66669,8.33334c6.66669,3.33331 7.45709,3.58224 8.33331,5c1.95929,3.1702 3.82147,5.48816 5,6.66666c1.17853,1.17853 1.02887,1.79352 1.66669,3.33334c0.90198,2.17761 3.62183,3.08786 5,5c2.17908,3.02332 2.43134,4.48907 3.33331,6.66666c0.63782,1.53979 0,3.33334 1.66669,3.33334c1.66669,0 3.62183,1.4212 5,3.33331c2.17914,3.02332 4.03143,4.0314 6.66669,6.66669c2.63519,2.63522 2.6955,6.79352 3.33331,8.33331c0.90198,2.17764 6.37402,5.16318 8.33331,8.33334c0.87622,1.41776 1.66669,3.33331 3.33337,6.66666c1.66669,3.33334 3.97809,6.52936 8.33331,8.33334c1.53979,0.63782 2.15485,0.48816 3.33331,1.66666c1.17853,1.17853 2.4314,4.48904 3.33337,6.66669c0.63782,1.53979 1.97662,4.48755 5,6.66666c3.82422,2.75635 7.43134,4.48904 8.33331,6.66666c0.63782,1.53983 0,3.33334 0,5c0,1.66669 0,3.33334 0,5c0,1.66669 -2.47711,3.03961 -3.33331,6.66669c-0.76581,3.24414 -1.66669,4.99997 -3.33337,8.33331c-1.66669,3.33334 -2.47705,6.37292 -3.33331,10c-0.38293,1.6221 -0.39111,1.92041 -1.66669,5c-0.90198,2.17761 -1.66663,3.33334 -1.66663,6.66669c0,1.66666 0,3.33331 0,5c0,5 1.66663,8.33334 3.33331,11.66666c1.66669,3.33331 4.14374,4.70624 5,8.33331c0.38293,1.62207 1.66669,5 1.66669,6.66669c0,3.33331 0.76465,4.48907 1.66663,6.66669c1.27557,3.07959 3.33337,5 5,6.66663c3.33337,3.33337 5,3.33337 6.66669,5c1.66669,1.66669 3.02106,5.34467 6.66669,8.33337c4.64722,3.80981 7.82239,5.76465 10,6.66663c1.53979,0.63776 1.66663,1.66669 1.66663,3.33337c0,1.66663 1.66669,3.33331 6.66669,6.66663l1.66669,1.66669l0,1.66669l1.66663,0" id="svg_37" stroke="#000" fill="none"/>
  <path d="m671.66669,324.16666c0,1.66669 -1.31647,1.79739 -3.33337,6.66669c-1.42615,3.44305 -4.15576,6.46423 -5,11.66666c-0.53394,3.29031 -1.41327,10.13281 -5,16.66666c-4.67651,8.51907 -11.24396,18.60199 -16.66663,26.66669c-4.6499,6.91541 -5,11.66666 -5,13.33331c0,3.33334 -1.31647,8.46405 -3.33337,13.33334c-1.42615,3.44308 -3.33331,8.33334 -3.33331,13.33334c0,3.33331 -0.76471,6.1557 -1.66669,8.33331c-1.27563,3.07959 0.51245,6.97672 -1.66663,10c-1.37817,1.91214 -1.66669,3.33334 -1.66669,5c0,1.66669 -0.39111,1.92041 -1.66669,5c-0.90198,2.17761 -3.33331,6.66669 -5,13.33334c-1.66663,6.66666 -4.15576,9.79758 -5,15c-0.8009,4.93542 -1.66663,8.33334 -1.66663,10c0,1.66666 -1.91339,3.71396 0,8.33334c2.70599,6.53281 11.15417,10.31003 13.33331,13.33334c1.37817,1.91211 1.66669,3.33331 1.66669,5c0,1.66663 -1.76111,4.86255 -6.66669,8.33331c-6.80286,4.81311 -11.97668,7.82092 -15,10c-1.91211,1.37817 -3.87274,4.20026 -6.66669,6.66669c-4.505,3.97693 -4.36218,6.79352 -5,8.33331c-0.90198,2.17761 -3.02106,5.34467 -6.66663,8.33331c-4.64722,3.80981 -9.1438,6.37292 -10,10c-0.38293,1.62213 -0.48816,2.15485 -1.66669,3.33337c-2.35699,2.35699 0,6.66663 0,10c0,1.66663 0,3.33331 0,5l0,1.66663l1.66669,1.66669" id="svg_38" stroke="#000" fill="none"/>
  <path d="m753.33331,250.83333c0,0 1.66669,0 3.33337,0c3.33331,0 6.66663,0 11.66663,0c3.33337,0 6.24463,2.28557 13.33337,6.66667c6.34033,3.91855 14.80084,8.75327 25,13.33334c8.18756,3.67676 15.06458,5.86575 20,6.66666c5.20239,0.84424 8.33331,1.66666 11.66663,1.66666c1.66669,0 3.33337,0 5,0c1.66669,0 3.33337,0 5,0c1.66669,0 3.33337,0 5,0c3.33337,0 6.66669,0 8.33337,0c1.66663,0 3.33331,0 5,0c3.33331,0 5,0 6.66663,0c1.66669,0 2.82239,0.76468 5,1.66669c1.53979,0.63782 1.66669,1.66663 3.33337,3.33331c1.66663,1.66666 4.09802,2.82239 5,5c0.63782,1.53983 2.43134,1.15573 3.33331,3.33334c0.63782,1.53979 1.66669,5 1.66669,6.66666c0,1.66669 0.48816,3.8215 1.66663,5c1.17853,1.17853 0,3.33334 1.66669,3.33334l0,1.66666" id="svg_39" stroke-width="2" stroke="#000" fill="none"/>
  <path d="m641.66669,129.16667c1.66663,0 3.49646,-0.29262 6.66663,1.66666c7.08875,4.3811 13.48529,7.99281 25,13.33334c10.14258,4.70412 17.28674,7.30844 23.33337,11.66666c1.91211,1.37817 6.66663,5 8.33331,6.66667c1.66669,1.66667 3.33331,1.66667 5,1.66667c1.66669,0 3.33331,0 5,0c3.33331,0 11.71533,0.98538 21.66669,0c8.45697,-0.83742 16.66663,-1.66667 18.33331,-1.66667c1.66669,0 3.33331,0 5,0c8.33331,0 23.33331,0 35,-1.66667c11.66669,-1.66666 13.33331,-1.66666 15,-1.66666c1.66669,0 3.33331,0 3.33331,1.66666c0,1.66667 1.19019,3.68616 5,8.33334c1.49432,1.82278 2.15485,3.82147 3.33337,5c1.17853,1.1785 1.73816,2.85034 3.33331,3.33333c5.7514,1.74138 11.3064,4.03339 16.66669,8.33333c2.90704,2.33195 3.08789,3.62183 5,5c3.02332,2.17906 6.1557,4.09801 8.33331,5c1.53979,0.6378 2.82239,0.76468 5,1.66667c4.61938,1.91341 7.82239,0.76468 10,1.66667c1.53979,0.63782 2.31146,1.52934 6.66669,3.33333c3.07959,1.27559 3.82147,0.48816 5,1.66667c1.17847,1.17848 5,1.66666 5,3.33333l0,1.66667l1.66663,0l1.66669,0" id="svg_41" stroke-width="2" stroke="#000" fill="none"/>
  <path d="m490,49.16667c1.66666,0 5,0 8.33334,0c3.33331,0 6.66666,0 10,0c3.33331,0 4.99997,0 6.66666,0c3.33331,0 9.80255,-0.31712 15,-3.33334c3.22333,-1.87056 6.66669,-6.66666 6.66669,-11.66666c0,-5 0,-10 0,-15c0,-1.66667 -0.63782,-3.4602 0,-5c0.90198,-2.17758 3.03955,-2.47709 6.66663,-3.33333c1.62213,-0.38293 3.37793,0.38291 5,0c3.62714,-0.85624 6.66669,-3.33333 8.33337,-3.33333c1.66663,0 3.37079,0.61091 8.33331,0c6.82037,-0.83962 8.82147,-3.82149 10,-5c1.17853,-1.17853 2.09418,-2.99502 3.33331,-5c2.77081,-4.48334 3.33337,-6.66667 3.33337,-8.33333l1.66663,-1.66667l0,-1.66667l1.66669,0" id="svg_42" stroke="#000" fill="none"/>
  <path d="m488.33334,50.83333c0,1.66667 -2.92554,6.88667 -6.66669,13.33333c-6.03241,10.39492 -18.19824,21.76434 -26.66666,33.33334c-4.92215,6.72434 -6.57285,12.06108 -5,15c2.83551,5.29821 11.66666,5 11.66666,6.66666c0,1.66667 0,6.66667 0,11.66666c0,5 0,8.33334 0,11.66667c0,3.33333 -0.60278,8.84233 -5,16.66667c-4.0827,7.26469 -9.19876,12.59698 -13.33331,18.33333c-2.17911,3.02332 -1.66669,5 -1.66669,6.66667c0,3.33333 -2.35983,6.26845 -5,11.66666c-2.31558,4.73453 -3.33331,10 -3.33331,13.33334c0,1.66666 -1.28378,5.04459 -1.66669,6.66666c-0.85623,3.62709 -2.74808,8.65964 -6.66666,15c-4.3811,7.08876 -10.75082,10.75082 -15,15c-4.24921,4.24918 -6.28372,6.71126 -6.66666,8.33334c-0.85626,3.62709 -1.95517,6.42122 -3.33334,8.33333c-4.35818,6.04663 -6.19019,12.01944 -10,16.66666c-4.48297,5.46835 -10,10 -10,15c0,1.66669 -0.3829,3.37793 0,5c0.85623,3.62711 1.88443,5.21454 3.33334,10c1.74136,5.7514 8.33331,8.33334 16.66666,13.33334c8.33334,5 10,6.66666 10,8.33334c0,1.66666 0,5 1.66666,8.33331c1.66669,3.33334 3.33334,6.66669 3.33334,10c0,1.66669 0,8.33334 0,15c0,6.66669 0,10 0,15c0,3.33334 0.35028,6.79742 -1.66666,11.66669c-1.42618,3.44308 -5.00003,10 -11.66669,18.33331c-6.66669,8.33334 -9.15576,14.79758 -10,20c-0.53394,3.29031 -0.34467,6.35446 -3.33331,10c-3.80981,4.64722 -7.48911,11.46429 -8.33334,16.66669c-0.8009,4.93542 0,8.33331 1.66666,11.66666c1.66669,3.33334 1.13275,5.04303 1.66669,8.33334c0.84424,5.20239 3.33331,8.33331 5,11.66666c1.66666,3.33334 4.09799,6.1557 5,8.33334c1.2756,3.07959 0.96594,6.80969 0,10c-1.74139,5.7514 -5.81042,8.03958 -6.66669,11.66666c-0.76584,3.24414 -1.66666,6.66669 -6.66666,11.66669c-5,5 -7.22919,8.84998 -10,13.33331c-1.23917,2.005 -3.12943,5.10999 -5,8.33331c-3.0162,5.19745 -2.82095,6.97668 -5,10c-1.37817,1.91211 -1.79352,2.69556 -3.33334,3.33337c-2.17758,0.90198 -1.66666,5 -3.33331,6.66663l-1.66669,1.66669" id="svg_46" stroke="#000" fill="none"/>
 </g>
</svg>